<?xml version="1.0" encoding="utf-8"?>
<!-- Generator: Adobe Illustrator 25.4.0, SVG Export Plug-In . SVG Version: 6.00 Build 0)  -->
<svg version="1.1" id="Layer_1" xmlns="http://www.w3.org/2000/svg" xmlns:xlink="http://www.w3.org/1999/xlink" x="0px" y="0px"
	 viewBox="0 0 510.5 611.8" style="enable-background:new 0 0 510.5 611.8;" xml:space="preserve">
<style type="text/css">
	.st0{fill:none;stroke:#C9C9C9;stroke-width:1.5;stroke-linejoin:round;}
	.st1{fill:#0E2B4C;}
	.st2{font-family:'HelveticaNeue-Light';}
	.st3{font-size:15px;}
	.st4{fill:none;stroke:#C9C9C9;stroke-width:1.5;stroke-linecap:round;stroke-linejoin:round;}
	.st5{fill:#F37828;stroke:#DB702C;stroke-width:1.5;stroke-linecap:round;stroke-linejoin:round;}
	.st6{fill:#F37828;stroke:#DB702C;stroke-width:1.5;}
	.st7{fill:#F37828;stroke:#DB702C;stroke-width:1.5;stroke-linejoin:round;}
	.st8{fill:#FFFFFF;}
	.st9{fill:#F37828;stroke:#DB702C;stroke-linejoin:round;}
</style>
<g id="Group_414" transform="translate(-6786.207 15116.751)">
	<g id="Group_401" transform="translate(1567.241 -974.501)">
		<path id="Path_432" class="st0" d="M5310-14141.5v96.7h63.6v-5.9h38.3v-84.3h-5.9v-6.5H5310z"/>
		<path id="Path_433" class="st0" d="M5379.8-14035.8v99.1l97.7-3.1l-3.3-96H5379.8z"/>
		<path id="Path_434" class="st0" d="M5425-14141.5v95h99.1v-85l-17.4,5.3v-15.2L5425-14141.5L5425-14141.5z"/>
		<path id="Path_435" class="st0" d="M5484.8-14035.8v38.5h46.5v-38.5H5484.8z"/>
		<text transform="matrix(1 0 0 1 5454.3511 -14088.1045)" class="st1 st2 st3">collin</text>
		<text transform="matrix(1 0 0 1 5333.9062 -14087.46)" class="st1 st2 st3">denton</text>
		<text transform="matrix(1 0 0 1 5405.0586 -13983.1719)" class="st1 st2 st3">dallas</text>
		<text transform="matrix(1 0 0 1 5490.2661 -14010.6396)" class="st1 st2 st3">R.W</text>
	</g>
	<g id="Group_405" transform="translate(1473.39 -2045.373)">
		<path id="Path_429" class="st0" d="M5630.7-12846.6l-21.6,63.2l44.7,35.3l7.5,19.8l8.8-12.6l10.6-8.5l-3.6-1.6v-4l18.4-13.2v-3.2
			l4.3-2.8l9-9.3L5630.7-12846.6z"/>
		<path id="Path_430" class="st0" d="M5660.8-12905l-11.5,24.5h5.7v6.6l-13.2,21l79,63.5l37.6-36.1l19.2-41.3l-4.1-4.3h-4.7
			l-4.6-2.8l-8-3.3l-3.4-3.4l-3.5,3.4h-3.1l-3.8-6.3h-3.9l-3.7,2.9h-9.2l-2.9,6.6h-9.6v4.7l-6.1-1.9h-6.9l-6.6-9.4v-2.9l-2.3-2.3
			v-5.7l-4.5-3.4h-5.7l2.7-6.3l-8.2-5.5l-4.5,3.9l-2.5-2.2l-1.9,3.8L5660.8-12905z"/>
		<path id="Path_431" class="st4" d="M5707.9-12980.7l-22.6,25.8l-14.9,31.1l3.1,1.4l4.7-1.4l2.4,1.4l3.3-3l8.4,5.4v7.7h3.2l4.5,2.4
			l1.5,7.9h1.9v6.3l6.7,5l5.8,1.3l2.4,2.5l4.1-3.9l8.2-2.9l2.1-3.9h4.6l13-4.4l4.3,1.6l1.7,2.8h4l3.5-1.5l3.7,3.4l6.3,2l4.4,4.3h4.1
			l9.4,6.3l30.8-10.6l-20.9-55.1l-59.3-24.4L5707.9-12980.7z"/>
		<text transform="matrix(1 0 0 1 5634.8584 -12784.1377)" class="st1 st2 st3">hays</text>
		<text transform="matrix(1 0 0 1 5675.0073 -12842.1025)" class="st1 st2 st3">travis</text>
		<text transform="matrix(1 0 0 1 5702.0962 -12926.1025)" class="st1 st2 st3">williamson</text>
	</g>
	<g id="Group_406" transform="translate(1605.957 -2207.557)">
		<path id="Path_420" class="st5" d="M5181-12660.2v38.6h11v35.2h85.9l46.2,24.3v-69.6h-65.6v-28.5H5181z"/>
		<path id="Path_421" class="st6" d="M5210.6-12567.8v54.9h106.8v13.9h9.2l24.5-31.7l-67.6-37.1L5210.6-12567.8L5210.6-12567.8z"/>
		<path id="Path_422" class="st7" d="M5233.6-12487.4v105.7H5349v-120.8l-19.1,28.9h-19.8v-13.8L5233.6-12487.4L5233.6-12487.4z"/>
		<text transform="matrix(1 0 0 1 5244.8472 -12606.7812)" class="st8 st2 st3">kerr</text>
		<path id="Path_423" class="st7" d="M5338.8-12629.1h56.1l30.6,36.5l-38.2,38.4l-15.4,6h-10.5l-22.5-12.8v-68.1H5338.8z"/>
		<path id="Path_424" class="st7" d="M5377.1-12535.6l-15.6,12v84.6l69.3,27.9l48.7-70.9l-4.1-4.5h-6.4l-3.8-4.7l-4-3.8v-4.4h-6.5
			l-4.4,1.6l-3.5-4.6l-2.6-5.3l-5.1-3.8v-7.2l-6.1-3.2v-6.8h6.1v-4.9h-6.1l-5.9-4.1l-5.6,4.1l-18-4.1l-11.1-4.7L5377.1-12535.6z"/>
		<path id="Path_425" class="st7" d="M5358.9-12423.1v118.4h80v6.6l43.2-36.1l-55.1-62.7L5358.9-12423.1z"/>
		<path id="Path_426" class="st7" d="M5488.5-12464.7l-44.1,62.7l20.7,21.6l17,22.8l79.2-68.9l-23.2-24.3l3.2-5.8h-43.5l-5,2.5
			L5488.5-12464.7z"/>
		<path id="Path_427" class="st9" d="M5406.5-12553.5l8.6,1l6.3-2.7l5.6,2.7l10.7,1.4l2.9,2.9l4.6-5.3l5.6,3.5h5.3l1.6,4.3l-5.7,1.3
			l-1.2,6.4l5.3,1.8l1.6,7.5l5.4,4.1l37.2-16.8l16.4-14.8l-7.9-19.2l-44.2-35.8L5406.5-12553.5z"/>
		<path id="Path_428" class="st6" d="M5538.3-12562.7l-17.2,17.1l-17.1,16.4l-37.1,17.4l2.2,7.6l5.6,2.2l4.2-2.2l3.5,2.2l-1.3,4
			l4.7,1.1l2.7,6.5l3.7,2.1l4-2.1l4,5l-3.1,5.4v7l3.1,5.8l3.8-2.3h45.2l34.1-54.3l-5.8-1.3l-6.6-1.7l-1.3-2.5l-6.1-3.8l2-2.7l-6-1.3
			l-3.7-6.4h-3.6l-2.9-7l-4.5-3l1.2-5.9L5538.3-12562.7z"/>
		<text transform="matrix(1 0 0 1 5388.3804 -12465.7061)" class="st8 st2 st3">bexar</text>
		<text transform="matrix(1 0 0 1 5491.2856 -12505.3486)" class="st8 st2 st3">guadalupe</text>
		<text transform="matrix(1 0 0 1 5261.9912 -12429.3652)" class="st8 st2 st3">medina</text>
		<text transform="matrix(1 0 0 1 5376.8604 -12342.9219)" class="st8 st2 st3">atascosa</text>
		<text transform="matrix(1 0 0 1 5473.6895 -12410.1992)" class="st8 st2 st3">wilson</text>
		<text transform="matrix(1 0 0 1 5441.4751 -12561.9189)" class="st8 st2 st3">comal</text>
		<text transform="matrix(1 0 0 1 5232.9521 -12533.1816)" class="st8 st2 st3">bandera</text>
		<text transform="matrix(1 0 0 1 5350.0376 -12586.5488)" class="st8 st2 st3">kendall</text>
	</g>
</g>
</svg>
